Coordinates
version=1
nRows=6
nColumns=46
inDegrees=yes

Units are S.I. units (second, meters, Newtons, ...)
Angles are in degrees.

endheader
time	pelvis_tilt	pelvis_list	pelvis_rotation	pelvis_tx	pelvis_ty	pelvis_tz	bb_angle	bb_tx	bb_ty	bb_tz	hip_flexion_r	hip_adduction_r	hip_rotation_r	knee_angle_r	knee_angle_r_beta	ankle_angle_r	subtalar_angle_r	mtp_angle_r	crank_angle_r	hip_flexion_l	hip_adduction_l	hip_rotation_l	knee_angle_l	knee_angle_l_beta	ankle_angle_l	subtalar_angle_l	mtp_angle_l	crank_angle_l	lumbar_extension	lumbar_bending	lumbar_rotation	arm_flex_r	arm_add_r	arm_rot_r	elbow_flex_r	pro_sup_r	wrist_flex_r	wrist_dev_r	arm_flex_l	arm_add_l	arm_rot_l	elbow_flex_l	pro_sup_l	wrist_flex_l	wrist_dev_l
      7.50000000	    -20.09502212	     10.23756765	      0.19440963	      0.12223704	      1.03657263	     -0.24638765	      0.00000000	      0.50000000	      0.00000000	      0.25000000	     64.97597734	    -21.66907547	    -35.14292060	     55.77930675	      0.97353256	     28.63267823	     15.74043754	      0.00000000	      0.00000000	     94.40483589	     -7.22458645	     -3.12847957	    121.46360882	      2.11993990	    -16.39291111	     -3.53149045	      0.00000000	      0.00000000	    -48.81611648	     -8.53442474	    -10.13759551	     89.68272168	    -12.14571709	     38.92547167	     54.24731716	     31.15510563	      0.00000000	      0.00000000	     87.83208223	    -25.23240891	     34.98163425	     62.33397602	     42.46955586	      0.00000000	      0.00000000
      7.50500000	    -19.76519421	     10.34025713	      0.16907116	      0.12338780	      1.03849999	     -0.24435387	      0.00000000	      0.50000000	      0.00000000	      0.25000000	     63.08450563	    -21.36066464	    -35.24554613	     54.19317842	      0.94584940	     28.71638793	     16.94862848	      0.00000000	      0.00000000	     95.49001762	     -7.78717733	     -2.90867064	    122.05421527	      2.13024792	    -17.78595736	     -3.33742972	      0.00000000	      0.00000000	    -49.27402622	     -9.04968405	    -10.07879833	     89.68373202	    -12.55169200	     39.15829405	     53.90465101	     31.11981479	      0.00000000	      0.00000000	     87.94690805	    -24.76339716	     35.11600664	     62.18098373	     42.50157019	      0.00000000	      0.00000000
      7.51000000	    -19.56829417	     10.49194798	      0.12304968	      0.12463021	      1.03993806	     -0.24292412	      0.00000000	      0.50000000	      0.00000000	      0.25000000	     61.48080616	    -21.15179662	    -35.18045771	     52.84478948	      0.92231557	     28.73421771	     17.90828573	      0.00000000	      0.00000000	     96.70842672	     -8.30059308	     -2.72825925	    122.63532047	      2.14039012	    -18.90758483	     -3.03644556	      0.00000000	      0.00000000	    -49.56790105	     -9.66247341	     -9.77143757	     89.67107540	    -13.81026468	     39.91924228	     54.12858469	     31.24844015	      0.00000000	      0.00000000	     88.21474494	    -23.43564448	     35.06925315	     61.18118399	     42.50309406	      0.00000000	      0.00000000
      7.51500000	    -19.45437930	     10.70988189	      0.20071185	      0.12586467	      1.04156582	     -0.24148165	      0.00000000	      0.50000000	      0.00000000	      0.25000000	     60.02330835	    -21.05622870	    -34.96106097	     51.60331043	      0.90064767	     28.68082297	     18.48631705	      0.00000000	      0.00000000	     97.93426220	     -8.73450953	     -2.64240810	    123.04948915	      2.14761873	    -19.92533140	     -2.53655318	      0.00000000	      0.00000000	    -49.88985001	    -10.13803181	    -10.06492905	     89.65441256	    -14.03757820	     39.92355619	     54.02775215	     31.24778592	      0.00000000	      0.00000000	     88.32208382	    -23.23347369	     35.05909787	     61.30955206	     42.53632193	      0.00000000	      0.00000000
      7.52000000	    -19.28100616	     10.85967395	      0.23120348	      0.12710105	      1.04325172	     -0.23986955	      0.00000000	      0.50000000	      0.00000000	      0.25000000	     58.53558366	    -20.92798340	    -34.76463685	     50.51884978	      0.88172026	     28.66136122	     19.21312331	      0.00000000	      0.00000000	     99.08673975	     -9.20163702	     -2.45562954	    123.43577833	      2.15436075	    -20.72046041	     -2.13458768	      0.00000000	      0.00000000	    -50.26563181	    -10.61217735	    -10.21033425	     89.63863117	    -14.31411210	     39.97320578	     53.91364343	     31.24857926	      0.00000000	      0.00000000	     88.45687116	    -22.98291216	     35.10254578	     61.45582272	     42.57507351	      0.00000000	      0.00000000
      7.52500000	    -19.06983254	     10.93813283	      0.32163270	      0.12862840	      1.04484571	     -0.23876838	      0.00000000	      0.50000000	      0.00000000	      0.25000000	     57.01541073	    -20.97946634	    -34.74382890	     49.67365067	      0.86696876	     28.68097680	     20.43155794	      0.00000000	      0.00000000	    100.17936477	     -9.57578737	     -2.24757491	    123.84340066	      2.16147510	    -21.21976820	     -1.62515873	      0.00000000	      0.00000000	    -50.63189444	    -10.95883740	    -10.09833285	     89.63378201	    -15.08057089	     40.36947168	     53.90541461	     31.32521366	      0.00000000	      0.00000000	     88.50284829	    -22.39368350	     35.34588222	     61.47996423	     42.62746966	      0.00000000	      0.00000000
